<svg width="100" height="40" viewBox="0 0 100 40" fill="none" xmlns="http://www.w3.org/2000/svg">
<path d="M0 0V2.7367H19.4648V0H0ZM22.2226 0V2.7367H49.9609C49.9609 2.7367 47.1276 0 43.375 0H22.2226ZM55.4023 0V2.7367H72.1835L71.1875 0H55.4023ZM84.2148 0L83.2187 2.7367H99.8476V0H84.2148ZM0 5.3222V8.0589H19.4648V5.3222H0ZM22.2226 5.3261V8.059H53.1796C53.1796 8.059 52.8181 5.9527 52.1874 5.3261H22.2226ZM55.4023 5.3261V8.059H74.0234L73.1015 5.3261H55.4023ZM82.2226 5.3261L81.3007 8.059H99.8476V5.3261H82.2226ZM5.5937 10.6444V13.385H14.0234V10.6444H5.5937ZM27.8164 10.6444V13.385H36.2461V10.6444H27.8164ZM44.4453 10.6444V13.385H52.875C52.875 13.385 53.4102 11.9377 53.4102 10.6444H44.4453ZM60.9961 10.6444V13.385H75.9414L74.9453 10.6444H60.9961ZM80.3867 10.6444L79.3867 13.385H94.4062V10.6444H80.3867ZM5.5937 15.9706V18.7073H14.0234V15.9706H5.5937ZM27.8164 15.9706V18.7073H49.3476C49.3476 18.7073 51.1488 17.3031 51.7226 15.9706H27.8164ZM60.9961 15.9706V18.7073H69.4258V17.1839L69.961 18.7073H85.4024L85.9766 17.1839V18.7073H94.4063V15.9706H78.582L77.7422 18.2886L76.8984 15.9706H60.9961ZM5.5937 21.2928V24.0295H14.0234V21.2928H5.5937ZM27.8164 21.2928V24.0295H51.7226C51.1487 22.7014 49.3476 21.2928 49.3476 21.2928H27.8164ZM60.9961 21.2928V24.0295H69.4258V21.2928H60.9961ZM70.957 21.2928L71.9765 24.0295H83.5546L84.5234 21.2928H70.957ZM85.9765 21.2928V24.0295H94.4062V21.2928H85.9765ZM5.5937 26.615V29.3516H14.0234V26.615H5.5937ZM27.8164 26.615V29.3516H36.2461V26.615H27.8164ZM44.4453 26.615V29.3516H53.4101C53.4101 28.0601 52.8749 26.615 52.8749 26.615H44.4453ZM60.9961 26.615V29.3516H69.4258V26.615H60.9961ZM72.8711 26.615L73.8594 29.3516H81.6211L82.6172 26.615H72.8711ZM85.9765 26.615V29.3516H94.4062V26.615H85.9765ZM0.1523 31.9372V34.6778H19.6171V31.9372H0.1523ZM22.2226 31.9372V34.6778H52.1874C52.8181 34.0503 53.1796 31.9372 53.1796 31.9372H22.2226ZM55.5547 31.9372V34.6778H69.4258V31.9372H55.5547ZM74.789 31.9372L75.8046 34.6778H79.7538L80.7069 31.9372H74.789ZM85.9765 31.9372V34.6778H100V31.9372H85.9765ZM0.1523 37.2633V40H19.6171V37.2633H0.1523ZM22.2226 37.2633V39.9961H43.375C47.1276 39.9961 49.9609 37.2633 49.9609 37.2633H22.2226ZM55.5547 37.2633V40H69.4258V37.2633H55.5547ZM76.7148 37.2633L77.6914 39.9923L77.8594 39.9961L78.8516 37.2633H76.7148ZM85.9765 37.2633V40H100V37.2633H85.9765Z" fill="#858585"/>
</svg>
