<svg width="100" height="22" viewBox="0 0 100 22" fill="none" xmlns="http://www.w3.org/2000/svg">
<g clip-path="url(#clip0_5_13)">
<path d="M100 9.66336V7.90471H97.8161V5.17067L97.7426 5.19331L95.6913 5.82093L95.6509 5.83321V7.90481H92.4132V6.75075C92.4132 6.21339 92.5334 5.80216 92.7702 5.52792C93.0053 5.25696 93.3417 5.11921 93.7707 5.11921C94.0791 5.11921 94.3984 5.19186 94.7198 5.33512L94.8004 5.37111V3.51901L94.7624 3.50508C94.4627 3.39732 94.0549 3.34305 93.5495 3.34305C92.9125 3.34305 92.3337 3.48167 91.8289 3.7564C91.3239 4.03152 90.9266 4.42426 90.6483 4.92361C90.3709 5.42238 90.2302 5.99844 90.2302 6.63593V7.90471H88.7095V9.66336H90.2302V17.0722H92.4132V9.66336H95.6509V14.3716C95.6509 16.3106 96.5655 17.2933 98.3693 17.2933C98.6657 17.2933 98.9777 17.2586 99.2962 17.1906C99.6205 17.1207 99.8413 17.051 99.9714 16.9765L100 16.9594V15.1845L99.9113 15.2433C99.7928 15.3222 99.6453 15.3867 99.4723 15.4347C99.2986 15.4836 99.1535 15.508 99.0411 15.508C98.6185 15.508 98.3059 15.3942 98.1119 15.1695C97.9157 14.9427 97.8162 14.5462 97.8162 13.9915V9.66336H100ZM83.8344 15.5083C83.0421 15.5083 82.4173 15.2456 81.9771 14.7281C81.5341 14.2079 81.3097 13.4663 81.3097 12.5241C81.3097 11.552 81.5341 10.7912 81.9773 10.2619C82.4178 9.73601 83.0365 9.46912 83.8166 9.46912C84.5736 9.46912 85.1761 9.72402 85.6078 10.2271C86.0415 10.7329 86.2617 11.4876 86.2617 12.471C86.2617 13.4665 86.0547 14.2312 85.6465 14.7428C85.241 15.2504 84.6314 15.5083 83.8344 15.5083ZM83.9314 7.68386C82.4198 7.68386 81.2191 8.12682 80.363 9.00043C79.5074 9.87415 79.0737 11.0832 79.0737 12.5945C79.0737 14.0298 79.4971 15.1844 80.3323 16.0255C81.1675 16.8669 82.3042 17.2931 83.7104 17.2931C85.1758 17.2931 86.3525 16.8439 87.2083 15.9582C88.0639 15.0735 88.4974 13.8758 88.4974 12.3999C88.4974 10.9421 88.0906 9.77896 87.288 8.94346C86.485 8.10757 85.3555 7.68386 83.9314 7.68386ZM75.554 7.68386C74.5257 7.68386 73.6751 7.94689 73.0253 8.46549C72.3715 8.98718 72.0399 9.67139 72.0399 10.4994C72.0399 10.9297 72.1115 11.312 72.2524 11.6363C72.3941 11.9616 72.6134 12.248 72.9048 12.4884C73.1939 12.7269 73.6402 12.9767 74.2317 13.2308C74.7289 13.4354 75.0997 13.6084 75.3352 13.7448C75.5655 13.8785 75.7288 14.0129 75.8211 14.1438C75.9108 14.2718 75.9563 14.4471 75.9563 14.6634C75.9563 15.2793 75.495 15.579 74.546 15.579C74.1939 15.579 73.7924 15.5055 73.3525 15.3606C72.9158 15.2179 72.5036 15.0089 72.1304 14.7409L72.0397 14.6759V16.7777L72.073 16.7932C72.3819 16.9358 72.7714 17.056 73.2304 17.1506C73.6885 17.2453 74.1048 17.2935 74.4664 17.2935C75.5822 17.2935 76.4808 17.0292 77.1364 16.5075C77.7963 15.9822 78.1307 15.2819 78.1307 14.4253C78.1307 13.8073 77.9507 13.2774 77.5958 12.85C77.2434 12.4261 76.6318 12.037 75.7787 11.693C75.099 11.4202 74.6636 11.1937 74.484 11.0199C74.3108 10.852 74.2229 10.6145 74.2229 10.3137C74.2229 10.0471 74.3314 9.83352 74.5542 9.66056C74.7787 9.48672 75.0913 9.39831 75.4832 9.39831C75.847 9.39831 76.2191 9.45577 76.5892 9.56837C76.959 9.68097 77.2839 9.83178 77.555 10.0163L77.6442 10.0772V8.08348L77.61 8.06877C77.3598 7.96149 77.0299 7.86969 76.6293 7.79521C76.2304 7.7212 75.8686 7.68386 75.554 7.68386ZM66.3489 15.5083C65.5567 15.5083 64.9318 15.2456 64.4917 14.7281C64.0486 14.2079 63.8246 13.4665 63.8246 12.5241C63.8246 11.552 64.0489 10.7912 64.4921 10.2619C64.9323 9.73601 65.5509 9.46912 66.3314 9.46912C67.088 9.46912 67.6906 9.72402 68.1223 10.2271C68.5562 10.7329 68.7763 11.4876 68.7763 12.471C68.7763 13.4665 68.5692 14.2312 68.1609 14.7428C67.7555 15.2504 67.1462 15.5083 66.3489 15.5083ZM66.4462 7.68386C64.9341 7.68386 63.7333 8.12682 62.8777 9.00043C62.0222 9.87415 61.5881 11.0832 61.5881 12.5945C61.5881 14.0304 62.0118 15.1844 62.8471 16.0255C63.6823 16.8669 64.8188 17.2931 66.2251 17.2931C67.6902 17.2931 68.8673 16.8439 69.723 15.9582C70.5784 15.0735 71.0121 13.8758 71.0121 12.3999C71.0121 10.9421 70.6053 9.77896 69.8024 8.94346C68.9992 8.10757 67.87 7.68386 66.4462 7.68386ZM58.2744 9.49233V7.90471H56.1179V17.0721H58.2744V12.3826C58.2744 11.5852 58.4552 10.9301 58.8119 10.4353C59.1641 9.94641 59.6335 9.69867 60.2066 9.69867C60.4008 9.69867 60.6189 9.73069 60.855 9.79405C61.0887 9.85703 61.258 9.92542 61.3578 9.99739L61.4485 10.0631V7.88904L61.4135 7.87405C61.2127 7.78872 60.9286 7.74568 60.5691 7.74568C60.0272 7.74568 59.5423 7.9198 59.1269 8.26263C58.7623 8.56396 58.4988 8.97712 58.2973 9.49233H58.2744ZM52.2562 7.68386C51.2668 7.68386 50.3844 7.896 49.6339 8.31419C48.8817 8.73335 48.3001 9.33175 47.9043 10.0927C47.5103 10.8518 47.3103 11.7384 47.3103 12.7273C47.3103 13.5934 47.5042 14.3883 47.8876 15.0889C48.2711 15.7906 48.814 16.3396 49.5012 16.7203C50.1875 17.1006 50.9806 17.2934 51.8588 17.2934C52.8836 17.2934 53.7586 17.0885 54.4601 16.6844L54.4884 16.6682V14.6925L54.3978 14.7587C54.08 14.9902 53.7249 15.175 53.3428 15.3081C52.9617 15.4411 52.6142 15.5083 52.3095 15.5083C51.4633 15.5083 50.784 15.2436 50.291 14.7216C49.7968 14.1989 49.5463 13.465 49.5463 12.5414C49.5463 11.6121 49.8076 10.8593 50.3225 10.3038C50.8359 9.75004 51.5164 9.46912 52.3451 9.46912C53.0538 9.46912 53.7445 9.70912 54.398 10.1831L54.4884 10.2488V8.16715L54.4592 8.15071C54.2133 8.01305 53.8779 7.89939 53.4616 7.8132C53.047 7.7272 52.6415 7.68386 52.2562 7.68386ZM45.8251 7.90481H43.6687V17.0721H45.8251V7.90481ZM44.7689 3.9995C44.414 3.9995 44.1044 4.12032 43.8501 4.35974C43.5947 4.59984 43.4652 4.90214 43.4652 5.2589C43.4652 5.61005 43.5932 5.90683 43.8462 6.14054C44.0975 6.37358 44.408 6.49169 44.769 6.49169C45.1299 6.49169 45.4416 6.37358 45.6959 6.14093C45.9519 5.90683 46.0817 5.61014 46.0817 5.2589C46.0817 4.91461 45.9554 4.61541 45.7065 4.36941C45.4578 4.1239 45.1422 3.9995 44.7689 3.9995ZM39.3885 7.22843V17.0721H41.5892V4.28013H38.5433L34.6718 13.7816L30.9146 4.28013H27.7447V17.072H29.8128V7.22746H29.8838L33.8513 17.0721H35.412L39.3175 7.22843H39.3885Z" fill="#858585"/>
<path d="M10.1445 10.1499H0V0.00546265H10.1445V10.1499Z" fill="#858585"/>
<path d="M21.3451 10.1499H11.2008V0.00546265H21.3451V10.1499Z" fill="#858585"/>
<path d="M10.1442 21.3545H0V11.2102H10.1442V21.3545Z" fill="#858585"/>
<path d="M21.3451 21.3545H11.2008V11.2102H21.3451V21.3545Z" fill="#858585"/>
</g>
<defs>
<clipPath id="clip0_5_13">
<rect width="100" height="21.36" fill="white"/>
</clipPath>
</defs>
</svg>
