<svg width="150" height="40" viewBox="0 0 150 40" fill="none" xmlns="http://www.w3.org/2000/svg">
<g clip-path="url(#clip0_5_19)">
<path d="M87.3 11.106L95.928 7.896L87.3 4.5V0L102.078 5.964V9.636L87.3 15.606V11.106ZM5.694 39.564C2.574 39.564 0 38.004 0 34.518V34.332C0 30.108 3.672 28.638 8.172 28.638H10.284V27.81C10.284 26.064 9.552 25.056 7.716 25.056C6.066 25.056 5.238 25.974 5.148 27.258H0.552C0.918 23.4 3.948 21.564 7.986 21.564C12.114 21.564 15.144 23.31 15.144 27.624V39.192H10.464V37.17C9.546 38.466 7.986 39.564 5.694 39.564ZM10.284 33.414V31.764H8.358C5.97 31.764 4.776 32.406 4.776 33.966V34.152C4.776 35.346 5.508 36.174 7.164 36.174C8.82 36.174 10.284 35.25 10.284 33.414ZM26.07 39.564C21.294 39.564 17.808 36.624 17.808 30.75V30.48C17.808 24.6 21.48 21.48 26.07 21.48C30.018 21.48 33.228 23.502 33.6 27.996H29.01C28.734 26.346 27.816 25.242 26.166 25.242C24.144 25.242 22.68 26.892 22.68 30.288V30.84C22.68 34.326 23.964 35.886 26.166 35.886C27.816 35.886 29.01 34.692 29.286 32.766H33.69C33.414 36.72 30.75 39.564 26.07 39.564ZM44.064 39.564C39.288 39.564 35.802 36.624 35.802 30.75V30.48C35.802 24.606 39.474 21.486 44.064 21.486C48.012 21.486 51.222 23.508 51.594 28.002H47.004C46.728 26.352 45.81 25.248 44.16 25.248C42.138 25.248 40.674 26.898 40.674 30.294V30.846C40.674 34.332 41.958 35.892 44.16 35.892C45.81 35.892 47.004 34.698 47.28 32.772H51.684C51.408 36.72 48.744 39.564 44.064 39.564ZM62.148 39.564C57.192 39.564 53.796 36.624 53.796 30.846V30.48C53.796 24.696 57.378 21.486 62.058 21.486C66.372 21.486 69.954 23.874 69.954 29.658V31.77H58.752C58.938 34.89 60.312 36.084 62.334 36.084C64.17 36.084 65.178 35.076 65.544 33.882H70.044C69.402 37.086 66.738 39.564 62.148 39.564ZM58.752 28.548H65.268C65.178 25.98 63.984 24.876 62.058 24.876C60.498 24.972 59.118 25.794 58.752 28.548ZM72.888 21.942H77.754V24.51C78.582 22.86 80.322 21.57 82.986 21.57C86.106 21.57 88.218 23.496 88.218 27.63V39.198H83.352V28.368C83.352 26.346 82.524 25.428 80.784 25.428C79.134 25.428 77.754 26.436 77.754 28.638V39.192H72.888V21.942ZM97.122 16.71V21.942H100.428V25.524H97.122V33.696C97.122 34.98 97.674 35.622 98.868 35.622C99.6 35.622 100.062 35.532 100.518 35.346V39.108C99.966 39.294 98.958 39.474 97.764 39.474C94.002 39.474 92.256 37.728 92.256 34.242V25.518H90.24V21.936H92.262V18.726L97.122 16.71ZM118.602 39.198H113.736V36.63C112.908 38.28 111.258 39.57 108.69 39.57C105.57 39.57 103.272 37.644 103.272 33.606V21.942H108.138V32.958C108.138 34.98 108.966 35.898 110.616 35.898C112.266 35.898 113.646 34.794 113.646 32.688V22.032H118.512V39.198H118.602ZM122.184 21.942H127.05V25.152C128.058 22.86 129.714 21.756 132.282 21.756V26.532C128.976 26.532 127.05 27.54 127.05 30.39V39.294H122.184V21.942ZM142.104 39.564C137.148 39.564 133.752 36.624 133.752 30.846V30.48C133.752 24.696 137.334 21.486 142.014 21.486C146.328 21.486 149.91 23.874 149.91 29.658V31.77H138.708C138.894 34.89 140.268 36.084 142.29 36.084C144.126 36.084 145.134 35.076 145.5 33.882H150C149.268 37.086 146.604 39.564 142.104 39.564ZM138.618 28.548H145.134C145.044 25.98 143.85 24.876 141.924 24.876C140.454 24.972 139.074 25.794 138.618 28.548Z" fill="#858585"/>
</g>
<defs>
<clipPath id="clip0_5_19">
<rect width="150" height="39.564" fill="white"/>
</clipPath>
</defs>
</svg>
