<svg width="80" height="47" viewBox="0 0 80 47" fill="none" xmlns="http://www.w3.org/2000/svg">
<g clip-path="url(#clip0_5_21)">
<path d="M22.8046 17.0259C22.8046 17.9907 22.9089 18.7729 23.0914 19.3465C23.3 19.9201 23.5607 20.5459 23.9257 21.2238C24.0561 21.4324 24.1083 21.6409 24.1083 21.8235C24.1083 22.0842 23.9518 22.3449 23.6129 22.6057L21.9702 23.7007C21.7356 23.8572 21.5009 23.9354 21.2923 23.9354C21.0316 23.9354 20.7709 23.805 20.5101 23.5704C20.1451 23.1793 19.8322 22.7621 19.5715 22.3449C19.3107 21.9017 19.05 21.4063 18.7632 20.8066C16.7295 23.2053 14.1743 24.4047 11.0976 24.4047C8.90745 24.4047 7.16054 23.779 5.88294 22.5274C4.60534 21.2759 3.95351 19.6072 3.95351 17.5213C3.95351 15.3051 4.73571 13.506 6.32619 12.1502C7.91667 10.7944 10.0286 10.1165 12.7142 10.1165C13.6007 10.1165 14.5132 10.1947 15.478 10.3251C16.4427 10.4554 17.4335 10.664 18.4764 10.8987V8.99533C18.4764 7.01375 18.0592 5.63186 17.2509 4.82358C16.4166 4.01531 15.0086 3.6242 13.001 3.6242C12.0884 3.6242 11.1498 3.7285 10.1851 3.96316C9.22034 4.19782 8.28169 4.48463 7.36912 4.84966C6.95195 5.03217 6.63907 5.13646 6.45655 5.18861C6.27404 5.24076 6.14367 5.26683 6.03938 5.26683C5.67435 5.26683 5.49184 5.0061 5.49184 4.45855V3.18096C5.49184 2.76378 5.54398 2.4509 5.67435 2.26839C5.80472 2.08587 6.03938 1.90336 6.40441 1.72085C7.31698 1.25152 8.41206 0.860423 9.68966 0.547542C10.9673 0.208587 12.3231 0.0521468 13.7571 0.0521468C16.8598 0.0521468 19.1282 0.756129 20.5883 2.16409C22.0224 3.57206 22.7524 5.71008 22.7524 8.57815V17.0259H22.8046ZM12.2188 20.9891C13.0792 20.9891 13.9657 20.8327 14.9043 20.5198C15.843 20.2069 16.6773 19.6333 17.3813 18.8511C17.7985 18.3557 18.1114 17.8081 18.2678 17.1824C18.4243 16.5566 18.5285 15.8005 18.5285 14.914V13.8189C17.7724 13.6364 16.9641 13.48 16.1298 13.3757C15.2954 13.2714 14.4872 13.2192 13.6789 13.2192C11.932 13.2192 10.6544 13.5582 9.79395 14.2622C8.93353 14.9661 8.51635 15.9569 8.51635 17.2606C8.51635 18.4861 8.82923 19.3986 9.48107 20.0244C10.1068 20.6762 11.0194 20.9891 12.2188 20.9891ZM33.1557 23.805C32.6864 23.805 32.3735 23.7268 32.1649 23.5443C31.9564 23.3879 31.7738 23.0228 31.6174 22.5274L25.4901 2.37268C25.3337 1.85121 25.2555 1.51226 25.2555 1.32974C25.2555 0.91257 25.4641 0.677909 25.8812 0.677909H28.4364C28.9318 0.677909 29.2708 0.756129 29.4533 0.938643C29.6619 1.09508 29.8183 1.46011 29.9748 1.95551L34.3551 19.2161L38.4226 1.95551C38.5529 1.43404 38.7094 1.09508 38.918 0.938643C39.1265 0.782202 39.4916 0.677909 39.9609 0.677909H42.0468C42.5422 0.677909 42.8811 0.756129 43.0897 0.938643C43.2983 1.09508 43.4808 1.46011 43.5851 1.95551L47.7047 19.4247L52.2154 1.95551C52.3718 1.43404 52.5543 1.09508 52.7369 0.938643C52.9454 0.782202 53.2844 0.677909 53.7537 0.677909H56.1786C56.5957 0.677909 56.8304 0.886496 56.8304 1.32974C56.8304 1.46011 56.8043 1.59048 56.7782 1.74692C56.7522 1.90336 56.7 2.11195 56.5957 2.39875L50.312 22.5535C50.1556 23.075 49.9731 23.4139 49.7645 23.5704C49.5559 23.7268 49.217 23.8311 48.7737 23.8311H46.5314C46.036 23.8311 45.697 23.7529 45.4885 23.5704C45.2799 23.3879 45.0974 23.0489 44.9931 22.5274L40.9517 5.71008L36.9364 22.5014C36.806 23.0228 36.6496 23.3618 36.441 23.5443C36.2324 23.7268 35.8674 23.805 35.398 23.805H33.1557ZM66.6601 24.509C65.3042 24.509 63.9484 24.3526 62.6448 24.0397C61.3411 23.7268 60.3242 23.3879 59.6463 22.9968C59.2291 22.7621 58.9423 22.5014 58.838 22.2667C58.7337 22.032 58.6816 21.7713 58.6816 21.5366V20.2069C58.6816 19.6594 58.8902 19.3986 59.2813 19.3986C59.4377 19.3986 59.5942 19.4247 59.7506 19.4768C59.9071 19.529 60.1417 19.6333 60.4024 19.7376C61.2889 20.1287 62.2537 20.4416 63.2705 20.6501C64.3135 20.8587 65.3303 20.963 66.3733 20.963C68.0159 20.963 69.2935 20.6762 70.18 20.1026C71.0665 19.529 71.5358 18.6946 71.5358 17.6256C71.5358 16.8956 71.3011 16.2959 70.8318 15.8005C70.3625 15.3051 69.476 14.8618 68.1984 14.4447L64.4178 13.2714C62.5144 12.6717 61.1064 11.7852 60.246 10.6119C59.3856 9.46465 58.9423 8.18705 58.9423 6.83123C58.9423 5.73615 59.177 4.77144 59.6463 3.93709C60.1156 3.10274 60.7414 2.37268 61.5236 1.79907C62.3058 1.19938 63.1923 0.756129 64.2352 0.443248C65.2782 0.130367 66.3733 0 67.5205 0C68.0941 0 68.6938 0.0260734 69.2674 0.104294C69.8671 0.182514 70.4146 0.286808 70.9622 0.391101C71.4837 0.521468 71.979 0.651835 72.4484 0.808276C72.9177 0.964716 73.2827 1.12116 73.5434 1.2776C73.9085 1.48618 74.1692 1.69477 74.3257 1.92943C74.4821 2.13802 74.5603 2.42483 74.5603 2.78986V4.01531C74.5603 4.56285 74.3517 4.84966 73.9606 4.84966C73.752 4.84966 73.4131 4.74536 72.9698 4.53677C71.4836 3.85887 69.8149 3.51991 67.9637 3.51991C66.4776 3.51991 65.3042 3.75457 64.496 4.24997C63.6877 4.74536 63.2705 5.50149 63.2705 6.5705C63.2705 7.30056 63.5313 7.92632 64.0527 8.42171C64.5742 8.91711 65.5389 9.4125 66.9208 9.85575L70.6232 11.0291C72.5005 11.6287 73.8563 12.4631 74.6646 13.5321C75.4729 14.6011 75.864 15.8266 75.864 17.1824C75.864 18.3035 75.6293 19.3204 75.1861 20.2069C74.7168 21.0934 74.091 21.8756 73.2827 22.5014C72.4744 23.1532 71.5097 23.6225 70.3886 23.9615C69.2153 24.3265 67.9898 24.509 66.6601 24.509Z" fill="#858585"/>
<path fill-rule="evenodd" clip-rule="evenodd" d="M71.5879 37.1807C63.0098 43.5165 50.5467 46.88 39.8305 46.88C24.8122 46.88 11.2801 41.3264 1.05935 32.0964C0.251078 31.3663 0.981133 30.3755 1.94585 30.9491C13.001 37.3632 26.6374 41.2481 40.7431 41.2481C50.2599 41.2481 60.7153 39.2666 70.3364 35.1991C71.7705 34.5473 72.9959 36.1378 71.5879 37.1807Z" fill="#858585"/>
<path fill-rule="evenodd" clip-rule="evenodd" d="M75.16 33.1132C74.0649 31.7053 67.9116 32.4353 65.1217 32.7743C64.2874 32.8786 64.157 32.1485 64.9132 31.601C69.815 28.1593 77.8716 29.1501 78.8103 30.2973C79.7489 31.4706 78.5496 39.5273 73.9606 43.3862C73.2567 43.9859 72.5787 43.673 72.8916 42.8908C73.9346 40.3095 76.2551 34.4951 75.16 33.1132Z" fill="#858585"/>
</g>
<defs>
<clipPath id="clip0_5_21">
<rect width="80" height="46.88" fill="white"/>
</clipPath>
</defs>
</svg>
